<svg width="115" height="34" viewBox="0 0 115 34" fill="none" xmlns="http://www.w3.org/2000/svg">
<path d="M111.459 10.1531V10.4559H110.581V12.7033H110.226V10.4559H109.348V10.1531H111.459Z" fill="#F8F5F1"/>
<path d="M111.902 10.1531H112.407L113.155 12.308L113.897 10.1531H114.388V12.7033H114.063V11.1987C114.063 11.1445 114.063 11.0584 114.063 10.9405C114.063 10.8225 114.063 10.6886 114.063 10.5515L113.327 12.7033H112.976L112.228 10.5515V10.6312C112.228 10.6918 112.228 10.7874 112.228 10.915C112.228 11.0425 112.228 11.1381 112.228 11.1987V12.7033H111.902V10.1531Z" fill="#F8F5F1"/>
<path d="M61.7909 17.5552C61.7909 19.4679 60.5578 20.4052 58.5569 20.4052C56.5559 20.4052 55.3228 19.4488 55.3228 17.5552V10.1531H52.5703V17.8995C52.5703 21.1575 55.0235 22.8662 58.5666 22.8662C62.1098 22.8662 64.5629 21.1575 64.5629 17.8995V10.1531H61.8007L61.7909 17.5552Z" fill="#F8F5F1"/>
<path d="M74.5249 10.1531H67.2109V22.8853H70.0318V18.5881H74.5412C77.7362 18.5881 79.5354 16.8794 79.5354 14.3865C79.5354 11.8936 77.7362 10.1531 74.5249 10.1531ZM74.4338 16.1908H70.0155V12.5886H74.4338C75.8264 12.5886 76.7113 13.2963 76.7113 14.3706C76.6983 15.4959 75.8068 16.1876 74.4338 16.1876V16.1908Z" fill="#F8F5F1"/>
<path d="M84.2622 15.1296V12.5698H92.3473V10.1502H81.4414V22.8697H92.4417V20.5298V20.38H86.5072H84.2622V17.6193H91.1305V15.1296H84.2622Z" fill="#F8F5F1"/>
<path d="M102.599 18.2024H102.82C105.953 18.2024 107.606 16.5319 107.606 14.2048C107.606 11.7342 105.918 10.1531 102.726 10.1531H94.9727V22.8726H97.7935V17.5648L98.7403 18.4L103.803 22.863H107.632L102.348 18.2024H102.599ZM97.7935 16.1111V12.5854H102.41C103.839 12.5854 104.785 13.274 104.785 14.3291C104.785 15.4385 103.809 16.1111 102.41 16.1111H97.7935Z" fill="#F8F5F1"/>
<path d="M42.3275 20.3927L49.2999 10.1502H38.9731L37.3398 12.5698L44.2276 12.557L37.3398 22.8601L49.6351 22.8793L51.3204 20.3768L42.3275 20.3927Z" fill="#F8F5F1"/>
<path d="M23.6187 10.1579L17.6484 19.0456H22.4605H23.9213H28.7366L34.7101 10.1579H23.6187Z" fill="#F8F5F1"/>
<path d="M15.4008 0.000167847L8.57812 10.1566H23.6161L30.4421 0.000167847H15.4008Z" fill="#F8F5F1"/>
<path d="M5.97354 14.0141L0 22.9018H11.0914L17.0649 14.0141H5.97354Z" fill="#F8F5F1"/>
<path d="M11.0916 22.9014L4.26562 33.0579H19.3068L26.1328 22.9014H11.0916Z" fill="#F8F5F1"/>
</svg>